# xmcd
#
# Track frame offsets:
# 150
# 11435
# 20630
# 34310
# 43710
# 52110
# 62760
# 72235
# 83055
# 92000
# 99785
# 110145
# 121445
# 131750
# 141920
# 152380
# 163900
# 177330
#
# Disc length: 2564 seconds
#
#
# Revision: 0
# Processed by: cddbd v1.5.1PL2 Copyright (c) Steve Scherf et al.
# Submitted via: FreeRIP 2.942 
#
DISCID=f80a0212
DTITLE=Lemmy, Slim Jim, Danny B - Lemmy, Slim Jim, Danny B
DYEAR=2000
DGENRE=Country
TTITLE0=Big River
TTITLE1=Lawdy, Miss Clawdy
TTITLE2=You Got Me Dizzy
TTITLE3=Cut Across Shorty
TTITLE4=Tell Me How
TTITLE5=Well ... All Right
TTITLE6=Take Your Time
TTITLE7=Stuck On You
TTITLE8=Love's Made A Fool Of You
TTITLE9=Trying To Get To You
TTITLE10=Not Fade Away
TTITLE11=Fool's Paradise
TTITLE12=Peggy Sue Got Married
TTITLE13=Crying, Waiting, Hoping
TTITLE14=Learning The Game
TTITLE15=Matchbox
TTITLE16=True Love Ways
TTITLE17=Heartbreak Hotel
EXTD=
EXTT0=
EXTT1=
EXTT2=
EXTT3=
EXTT4=
EXTT5=
EXTT6=
EXTT7=
EXTT8=
EXTT9=
EXTT10=
EXTT11=
EXTT12=
EXTT13=
EXTT14=
EXTT15=
EXTT16=
EXTT17=
PLAYORDER=
